<?xml version="1.0" standalone="no"?>
<!DOCTYPE svg PUBLIC "-//W3C//DTD SVG 20010904//EN"
 "http://www.w3.org/TR/2001/REC-SVG-20010904/DTD/svg10.dtd">
<svg version="1.0" xmlns="http://www.w3.org/2000/svg"
 width="512.000000pt" height="512.000000pt" viewBox="0 0 512.000000 512.000000"
 preserveAspectRatio="xMidYMid meet">
<metadata>
Created by potrace 1.14, written by Peter Selinger 2001-2017
</metadata>
<g transform="translate(0.000000,512.000000) scale(0.100000,-0.100000)"
fill="#000000" stroke="none">
<path d="M393 5106 c-183 -45 -344 -210 -382 -394 -16 -75 -16 -4229 0 -4304
39 -189 208 -358 397 -397 75 -16 4229 -16 4304 0 189 39 358 208 397 397 16
75 16 4229 0 4304 -39 189 -208 358 -397 397 -81 17 -4248 14 -4319 -3z m1048
-852 c14 -7 39 -28 55 -46 16 -18 493 -642 1059 -1387 l1030 -1353 5 1350 c5
1345 5 1351 26 1378 46 62 110 87 188 73 46 -8 83 -34 114 -79 l22 -33 -2
-1608 c-3 -1606 -3 -1608 -24 -1635 -11 -15 -32 -37 -47 -48 -35 -26 -130 -33
-178 -13 -29 12 -212 247 -1089 1397 l-1055 1383 -5 -1334 c-4 -977 -8 -1341
-17 -1360 -15 -33 -76 -87 -109 -95 -14 -4 -49 -4 -78 -2 -61 5 -107 33 -134
81 -16 30 -17 132 -17 1632 0 1582 0 1600 20 1634 47 81 149 109 236 65z"/>
</g>
</svg>
